<svg width="43" height="37" viewBox="0 0 43 37" fill="none" xmlns="http://www.w3.org/2000/svg">
<g id="Layer_1" clip-path="url(#clip0_4133_2383)">
<path id="Vector" d="M4.23463 10.3341C4.46275 10.3341 4.64809 10.3341 4.84057 10.3341C10.3011 10.3341 15.7688 10.3341 21.2293 10.3341C22.0349 10.3341 22.6693 10.0748 23.0115 9.27483C23.4606 8.21557 22.7905 7.00817 21.6784 6.86742C21.5073 6.8452 21.3291 6.85261 21.1509 6.85261C14.7779 6.85261 8.40489 6.85261 2.03188 6.85261C1.96772 6.85261 1.90356 6.85261 1.83941 6.85261C0.363777 6.87483 -0.384731 8.0378 0.178432 9.46742C0.834268 11.1193 1.51149 12.7637 2.17445 14.4082C3.59305 17.9193 5.02591 21.423 6.43026 24.9341C6.8152 25.8971 7.45678 26.3267 8.45479 26.3267C14.7779 26.3119 21.101 26.3267 27.4313 26.3193C28.6217 26.3193 29.1207 25.9341 29.47 24.7267C31.5017 17.823 33.5334 10.9267 35.5508 4.02298C35.672 3.60817 35.8288 3.45261 36.2636 3.46002C37.9531 3.48965 39.6426 3.48965 41.3321 3.46002C42.6224 3.4378 43.3923 2.0452 42.7721 0.904462C42.4584 0.326684 41.9594 0.00816574 41.325 0.00816574C39.0296 -0.00664907 36.7341 -0.0140565 34.4458 0.00816574C33.6189 0.0155731 33.0985 0.519277 32.8276 1.4378C31.2308 6.85261 29.6411 12.26 28.0443 17.6748C27.581 19.26 27.1105 20.8378 26.6542 22.423C26.5687 22.7267 26.4332 22.8378 26.1196 22.8378C20.6091 22.8304 15.0987 22.8378 9.58112 22.8156C9.42429 22.8156 9.17478 22.6748 9.11063 22.5341C7.47817 18.5415 5.86709 14.5415 4.24889 10.5415C4.23463 10.4971 4.23463 10.4452 4.22038 10.3119L4.23463 10.3341Z" fill="#231F23"/>
<path id="Vector_2" d="M4.40552 33.9479C4.40552 35.6442 5.73145 37.0146 7.36391 37.0072C8.97498 36.9998 10.2795 35.6442 10.2938 33.9702C10.308 32.2739 8.99637 30.8961 7.36391 30.8887C5.73145 30.8887 4.41265 32.2516 4.41265 33.9479H4.40552Z" fill="#231F23"/>
<path id="Vector_3" d="M26.2549 33.9336C26.2549 35.6299 27.5666 37.0077 29.199 37.0077C30.8315 37.0077 32.1503 35.6299 32.1431 33.941C32.1431 32.267 30.8386 30.9114 29.2275 30.8966C27.5951 30.8818 26.2691 32.2448 26.262 33.941L26.2549 33.9336Z" fill="#231F23"/>
</g>
<defs>
<clipPath id="clip0_4133_2383">
<rect width="43" height="37" fill="white"/>
</clipPath>
</defs>
</svg>
