<svg width="222" height="50" viewBox="0 0 222 50" fill="none" xmlns="http://www.w3.org/2000/svg">
<g id="Vector">
<path d="M221.986 30.4084C221.624 30.5155 221.582 30.5441 221.539 30.5441C216.76 30.7654 216.64 30.694 213.725 25.639C212.184 22.9687 209.892 21.6336 206.848 21.6336C202.983 21.6336 199.119 21.6479 195.262 21.6193C194.375 21.6122 193.801 21.8121 193.298 22.6546C191.872 25.0607 190.341 27.4025 188.781 29.723C188.511 30.1228 187.916 30.4869 187.441 30.5226C186.115 30.6297 184.775 30.5583 183.059 30.5583C189.596 20.3199 195.992 10.3027 202.565 0C209.109 10.2385 215.519 20.2699 222 30.4013L221.986 30.4084ZM202.558 8.28931C200.544 11.4165 198.637 14.3867 196.658 17.4639H208.457C206.465 14.3581 204.571 11.4165 202.565 8.28931H202.558Z" fill="#9184A0"/>
<path d="M124.477 1.55648H128.618V16.036C129.979 14.9293 131.057 14.094 132.085 13.2015C136.417 9.43167 140.728 5.6333 145.061 1.86349C145.287 1.66357 145.642 1.51364 145.94 1.5065C147.507 1.4708 149.067 1.49222 150.811 1.81351C147.358 4.86934 143.905 7.92518 140.331 11.0881C145.529 17.5282 150.662 23.8898 156.044 30.5512C154.193 30.5512 152.725 30.6726 151.3 30.4941C150.705 30.4227 150.102 29.7872 149.655 29.266C145.373 24.2468 141.118 19.1918 136.758 14.0297C134.723 15.7504 132.851 17.5782 130.731 19.0561C128.852 20.3627 128.518 21.9977 128.653 24.0754C128.788 26.1674 128.681 28.2807 128.681 30.4798H124.477V1.55648Z" fill="#9184A0"/>
<path d="M58.6695 1.56362H62.7749C62.7962 2.12766 62.8387 2.63459 62.8387 3.14865C62.8387 7.51821 62.938 11.8878 62.8174 16.2502C62.548 25.9032 71.9501 29.4659 78.7144 26.9313C83.0397 25.3106 85.7482 21.2052 85.7128 16.3716C85.6702 11.4808 85.7057 6.59003 85.7057 1.58504H90.038C90.038 2.94874 90.038 4.27674 90.038 5.60474C90.038 9.25318 90.038 12.9016 90.038 16.5501C90.038 24.6037 85.727 29.8229 77.7927 31.1295C71.553 32.1576 65.8593 31.1152 61.4206 26.0888C59.57 23.9969 58.6837 21.4408 58.6128 18.7348C58.4638 13.2158 58.556 7.6967 58.556 2.17764C58.556 1.99914 58.6269 1.81351 58.6766 1.55648L58.6695 1.56362Z" fill="#9184A0"/>
<path d="M0.00235212 1.55648H4.3914V26.5244H27.8611V30.4655H0.00235212V1.55648Z" fill="#9184A0"/>
<path d="M57.1805 50C54.4081 49.7501 51.9476 49.1004 49.9977 47.1084C47.6933 44.7594 47.7571 41.5179 50.1041 39.2261C53.3019 36.106 59.9387 36.0131 63.3138 38.8762C66.4123 41.5108 66.3769 46.3302 61.8177 48.5935C60.3925 49.3003 58.7333 49.5431 57.1875 49.9929L57.1805 50ZM56.4714 48.4435C58.0526 48.0223 59.2934 47.8224 60.435 47.3654C62.1226 46.68 63.4059 45.4448 63.5548 43.5242C63.6896 41.7821 62.6473 40.5398 61.2717 39.5902C58.8964 37.9409 54.6137 38.0266 52.2809 39.7544C49.7283 41.6464 49.5723 44.7166 52.1462 46.5515C53.4579 47.4868 55.1384 47.8866 56.4714 48.4578V48.4435Z" fill="#9184A0"/>
<path d="M200.53 37.1841V38.7905H190.589V42.0391H199.076C199.112 42.646 199.14 43.103 199.183 43.7313H190.61V47.5796H200.509C200.558 48.1936 200.594 48.6506 200.636 49.236H188.873V37.1841H200.53Z" fill="#9184A0"/>
<path d="M107.169 36.7842C109.502 36.7271 111.615 37.3768 113.472 38.8334C116.613 41.3037 116.5 45.5733 113.224 47.9009C109.721 50.3856 104.574 50.3998 101.241 47.9366C97.5469 45.2021 97.7667 40.447 101.83 38.2479C103.432 37.384 105.29 37.0056 107.034 36.413C107.077 36.5415 107.126 36.6629 107.169 36.7914V36.7842ZM107.842 48.2365C108.722 47.9223 110.31 47.6082 111.629 46.8299C114.585 45.0878 114.557 41.625 111.714 39.7258C108.842 37.8124 105.127 37.8766 102.383 39.8829C100.142 41.5179 99.9222 44.2168 101.893 46.1517C103.354 47.5868 105.19 48.008 107.842 48.2365Z" fill="#9184A0"/>
<path d="M220.752 39.2403C218.476 38.9904 216.413 38.7548 214.349 38.5335C214.066 38.5049 213.697 38.4407 213.498 38.5835C212.761 39.1047 212.08 39.7116 211.378 40.2827C212.066 40.8611 212.676 41.7178 213.463 41.9606C215.335 42.5246 217.313 42.7103 219.206 43.2029C221.149 43.7098 222.014 44.7308 221.979 46.0803C221.936 47.6225 220.802 48.8933 218.987 49.336C216.384 49.9714 213.81 49.9215 211.229 49.1147C209.953 48.722 209.343 48.0937 209.719 46.73C211.095 47.1441 212.456 47.7795 213.867 47.9223C215.392 48.0723 216.98 47.8938 218.49 47.601C219.086 47.4868 219.554 46.6729 220.078 46.1802C219.561 45.6804 219.121 44.9165 218.519 44.7451C216.64 44.2096 214.683 43.9455 212.789 43.4742C211.527 43.1601 210.265 42.7388 209.698 41.3537C209.159 40.0328 209.521 38.6334 210.761 37.9766C213.747 36.3987 216.866 36.3701 219.937 37.6767C220.398 37.8766 220.546 38.8262 220.752 39.2475V39.2403Z" fill="#9184A0"/>
<path d="M26.2161 49.2503H24.5782V37.2126H26.2161C26.2161 38.5121 26.1523 39.7758 26.2586 41.0181C26.287 41.3823 26.7833 41.9963 27.0811 42.0034C30.2151 42.0748 33.3492 42.0463 36.625 42.0463V37.2198H38.6103V49.236H36.7526V43.5456C33.3846 43.5456 30.1655 43.5171 26.9535 43.5956C26.6982 43.5956 26.2728 44.2953 26.2515 44.6809C26.1664 46.1731 26.2161 47.6724 26.2161 49.2503Z" fill="#9184A0"/>
<path d="M152.413 36.5558C155.2 40.9182 157.816 45.0164 160.461 49.1575C158.958 49.7001 158.065 49.1861 157.526 47.8938C156.71 45.9446 155.271 45.1449 153.193 45.5376C153.009 45.5733 152.803 45.5662 152.612 45.5376C149.967 45.095 148.017 45.8375 146.862 48.5006C146.613 49.0718 145.458 49.2432 144.72 49.6002C144.607 49.4431 144.486 49.286 144.373 49.1218C147.003 45.0164 149.627 40.911 152.413 36.5629V36.5558ZM150.017 43.8669H154.796C153.966 42.5389 153.243 41.3894 152.421 40.0685C151.584 41.3894 150.861 42.5318 150.017 43.8669Z" fill="#9184A0"/>
<path d="M14.0629 40.3042C11.014 37.7267 6.90855 37.6624 3.95179 39.6973C1.0234 41.7107 1.11558 45.2163 4.22832 47.0013C7.20635 48.7077 10.2482 48.7077 13.212 46.8442C13.524 46.6443 13.8644 46.4801 14.1905 46.3016C14.6727 47.7867 14.0345 48.5435 12.7441 48.979C9.03571 50.2285 5.50462 50.1499 2.25715 47.6653C-0.522336 45.5448 -0.770504 41.7821 1.71118 39.3546C4.6963 36.4344 10.3758 35.8061 13.7438 38.1551C14.2331 38.4978 14.2685 39.4831 14.5167 40.1756C14.3678 40.2185 14.2189 40.2613 14.07 40.3042H14.0629Z" fill="#9184A0"/>
<path d="M88.7972 40.2399C86.1169 38.2765 83.2311 37.6196 80.1183 38.8905C76.1122 40.5326 75.8144 44.0954 77.821 46.116C79.7993 48.1151 82.3731 48.572 85.0392 48.0294C86.3509 47.7581 87.5776 47.037 88.8681 46.5015C89.2013 47.5368 88.9461 48.315 87.6981 48.8291C84.3727 50.2071 81.1252 50.0857 77.9983 48.3578C75.9917 47.244 74.6444 45.5305 74.7295 43.0958C74.8146 40.5541 76.3249 38.8833 78.4804 37.8481C81.3946 36.4487 84.3939 36.4272 87.45 37.5411C88.8184 38.0408 89.2439 38.8048 88.8043 40.247L88.7972 40.2399Z" fill="#9184A0"/>
<path d="M179.868 38.8405H174.011V49.2503C173.366 49.2789 172.877 49.3074 172.196 49.336C172.196 46.3159 172.125 43.41 172.224 40.5112C172.274 39.1761 171.912 38.6906 170.544 38.7977C169.062 38.919 167.559 38.8262 165.956 38.8262V37.0841C168.31 37.0841 170.615 37.0841 172.926 37.0841C174.862 37.0841 176.798 37.1626 178.726 37.0841C180.031 37.027 180.223 37.591 179.868 38.8476V38.8405Z" fill="#9184A0"/>
<path d="M137.275 47.5582V49.2575H125.597V37.1769H127.178V47.5653H137.275V47.5582Z" fill="#9184A0"/>
</g>
</svg>
