<svg width="83" height="73" viewBox="0 0 83 73" fill="none" xmlns="http://www.w3.org/2000/svg">
<path d="M83 36.3125C83 56.3673 64.4198 72.625 41.5 72.625C18.5802 72.625 0 56.3673 0 36.3125C0 16.2577 18.5802 0 41.5 0C64.4198 0 83 16.2577 83 36.3125Z" fill="#231F23"/>
<path fill-rule="evenodd" clip-rule="evenodd" d="M70.4962 37.4318C70.4962 36.8795 70.0485 36.4318 69.4962 36.4318H20.6176C20.0653 36.4318 19.6176 36.8795 19.6176 37.4318C19.6176 37.9841 20.0653 38.4318 20.6176 38.4318H69.4962C70.0485 38.4318 70.4962 37.9841 70.4962 37.4318Z" fill="#9184A0"/>
<path d="M32.168 51.5136C32.6212 44.5182 26.9303 39.438 20.333 37.5632C18.1831 36.8979 16.0438 36.4544 13.7147 36.2528V38.6014C20.3225 37.9563 27.668 35.6077 30.9244 29.6304C31.9888 27.6749 32.3577 25.4674 32.3261 23.3406C32.3261 23.0482 32.0732 22.8164 31.7675 22.8164C31.4725 22.8164 31.2301 23.0583 31.2195 23.3406C31.2406 32.1906 21.6082 36.0613 13.6304 36.2528C12.0601 36.3133 12.0496 38.5409 13.6304 38.6014C21.6609 38.7425 31.346 42.6131 31.3671 51.5136C31.3671 51.9874 32.1575 51.9975 32.1575 51.5136H32.168Z" fill="#9184A0"/>
</svg>
