<svg width="29" height="29" viewBox="0 0 29 29" fill="none" xmlns="http://www.w3.org/2000/svg">
<g id="&#240;&#159;&#166;&#134; icon &#34;instagram fill icon&#34;">
<path id="Vector" fill-rule="evenodd" clip-rule="evenodd" d="M8.37504 0.5855C9.89504 0.51583 10.3795 0.5 14.25 0.5C18.1212 0.5 18.6049 0.516621 20.1241 0.5855C21.6417 0.654379 22.6781 0.895839 23.5845 1.24812C24.5353 1.60607 25.3965 2.16691 26.1083 2.89163C26.8331 3.60339 27.3941 4.46469 27.7519 5.41546C28.1041 6.32192 28.3448 7.35821 28.4145 8.87504C28.4842 10.395 28.5 10.8795 28.5 14.75C28.5 18.6204 28.4834 19.1049 28.4145 20.625C28.3456 22.1417 28.1041 23.1781 27.7519 24.0845C27.3877 25.0211 26.9 25.8167 26.1083 26.6083C25.3966 27.3331 24.5353 27.8941 23.5845 28.2519C22.6781 28.6041 21.6417 28.8448 20.125 28.9145C18.6049 28.9842 18.1204 29 14.25 29C10.3795 29 9.89504 28.9834 8.37504 28.9145C6.85821 28.8456 5.82192 28.6041 4.91546 28.2519C3.97891 27.8877 3.18329 27.4 2.39163 26.6083C1.66678 25.8966 1.1059 25.0353 0.748125 24.0845C0.395839 23.1781 0.15517 22.1417 0.0855 20.625C0.0158304 19.1049 0 18.6212 0 14.75C0 10.8788 0.0166207 10.395 0.0855 8.87584C0.154379 7.35821 0.395839 6.32192 0.748125 5.41546C1.10607 4.46475 1.66691 3.60349 2.39163 2.89163C3.10338 2.16678 3.96467 1.6059 4.91546 1.24812C5.82192 0.895839 6.85821 0.65517 8.37504 0.5855ZM20.0086 3.1505C18.506 3.08241 18.0547 3.06737 14.25 3.06737C10.4452 3.06737 9.994 3.08241 8.49142 3.1505C7.10204 3.21383 6.34758 3.44579 5.84566 3.64133C5.18067 3.89942 4.70566 4.20816 4.20691 4.70691C3.70896 5.20566 3.39942 5.68067 3.14133 6.34566C2.94579 6.84758 2.71383 7.60204 2.6505 8.99142C2.58241 10.494 2.56737 10.9452 2.56737 14.75C2.56737 18.5547 2.58241 19.006 2.6505 20.5086C2.71383 21.8979 2.94579 22.6524 3.14133 23.1544C3.36962 23.7734 3.73375 24.3333 4.20691 24.7931C4.66667 25.2662 5.22665 25.6304 5.84566 25.8587C6.34758 26.0543 7.10204 26.2862 8.49142 26.3495C9.994 26.4176 10.4445 26.4327 14.25 26.4327C18.0555 26.4327 18.506 26.4176 20.0086 26.3495C21.3979 26.2862 22.1524 26.0543 22.6544 25.8587C23.3193 25.6006 23.7944 25.2919 24.2931 24.7931C24.7662 24.3334 25.1304 23.7734 25.3587 23.1544C25.5543 22.6524 25.7862 21.8979 25.8495 20.5086C25.9176 19.006 25.9327 18.5547 25.9327 14.75C25.9327 10.9452 25.9176 10.494 25.8495 8.99142C25.7862 7.60204 25.5543 6.84758 25.3587 6.34566C25.1006 5.68067 24.7919 5.20566 24.2931 4.70691C23.7944 4.20896 23.3193 3.89942 22.6544 3.64133C22.1524 3.44579 21.3979 3.21383 20.0086 3.1505ZM12.4305 19.1428C13.0074 19.3818 13.6256 19.5047 14.25 19.5047C15.5111 19.5047 16.7204 19.0038 17.6121 18.1121C18.5039 17.2204 19.0048 16.011 19.0048 14.75C19.0048 13.489 18.5039 12.2796 17.6121 11.3879C16.7204 10.4962 15.5111 9.99524 14.25 9.99524C13.6256 9.99524 13.0074 10.1182 12.4305 10.3572C11.8535 10.5961 11.3294 10.9464 10.8879 11.3879C10.4464 11.8294 10.0962 12.3535 9.85722 12.9304C9.61827 13.5073 9.49529 14.1256 9.49529 14.75C9.49529 15.3744 9.61827 15.9927 9.85722 16.5696C10.0962 17.1465 10.4464 17.6706 10.8879 18.1121C11.3294 18.5536 11.8535 18.9039 12.4305 19.1428ZM9.07084 9.57079C10.4444 8.19718 12.3075 7.42549 14.25 7.42549C16.1927 7.42549 18.0557 8.19718 19.4292 9.57079C20.8028 10.9444 21.5745 12.8075 21.5745 14.75C21.5745 16.6925 20.8028 18.5555 19.4292 19.9292C18.0557 21.3028 16.1927 22.0745 14.25 22.0745C12.3075 22.0745 10.4444 21.3028 9.07084 19.9292C7.69723 18.5555 6.92554 16.6925 6.92554 14.75C6.92554 12.8075 7.69723 10.9444 9.07084 9.57079ZM23.1986 8.51676C23.5233 8.19206 23.7057 7.75168 23.7057 7.2925C23.7057 6.8333 23.5233 6.39292 23.1986 6.06823C22.8738 5.74353 22.4335 5.56112 21.9743 5.56112C21.5152 5.56112 21.0747 5.74353 20.7501 6.06823C20.4253 6.39292 20.2429 6.8333 20.2429 7.2925C20.2429 7.75168 20.4253 8.19206 20.7501 8.51676C21.0747 8.84146 21.5152 9.02387 21.9743 9.02387C22.4335 9.02387 22.8738 8.84146 23.1986 8.51676Z" fill="#9184A0"/>
</g>
</svg>
