<svg width="38" height="29" viewBox="0 0 38 29" fill="none" xmlns="http://www.w3.org/2000/svg">
<g id="&#240;&#159;&#166;&#134; icon &#34;Envelope icon&#34;">
<path id="Vector" d="M34.4375 0.5H3.5625C1.59496 0.5 0 2.09496 0 4.0625V25.4375C0 27.405 1.59496 29 3.5625 29H34.4375C36.405 29 38 27.405 38 25.4375V4.0625C38 2.09496 36.405 0.5 34.4375 0.5ZM34.4375 4.0625V7.091C32.7734 8.44616 30.1203 10.5534 24.4486 14.9946C23.1987 15.9777 20.7228 18.3397 19 18.3122C17.2775 18.34 14.8008 15.9774 13.5514 14.9946C7.88055 10.554 5.22686 8.44638 3.5625 7.091V4.0625H34.4375ZM3.5625 25.4375V11.6624C5.26315 13.0169 7.67489 14.9177 11.3509 17.7962C12.9731 19.0732 15.8139 21.8921 19 21.8749C22.1704 21.8921 24.9753 19.1141 26.6485 17.7968C30.3244 14.9184 32.7368 13.0171 34.4375 11.6624V25.4375H3.5625Z" fill="#9184A0"/>
</g>
</svg>
