<svg width="50" height="50" viewBox="0 0 50 50" fill="none" xmlns="http://www.w3.org/2000/svg">
<circle cx="25" cy="25" r="23" stroke="#231F23" stroke-width="4"/>
<path fill-rule="evenodd" clip-rule="evenodd" d="M23.959 26.0391V40.625H24.959V26.0391H40.625V25.0391H24.959L24.959 9.375H23.959L23.959 25.0391H9.375V26.0391H23.959Z" fill="#231F23"/>
<path d="M23.959 40.625H22.459V42.125H23.959V40.625ZM23.959 26.0391H25.459V24.5391H23.959V26.0391ZM24.959 40.625V42.125H26.459V40.625H24.959ZM24.959 26.0391V24.5391H23.459V26.0391H24.959ZM40.625 26.0391V27.5391H42.125V26.0391H40.625ZM40.625 25.0391H42.125V23.5391H40.625V25.0391ZM24.959 25.0391L23.459 25.0391L23.459 26.5391H24.959V25.0391ZM24.959 9.375L26.459 9.375L26.459 7.875H24.959V9.375ZM23.959 9.375V7.875H22.459L22.459 9.375L23.959 9.375ZM23.959 25.0391V26.5391H25.459L25.459 25.0391L23.959 25.0391ZM9.375 25.0391V23.5391H7.875V25.0391H9.375ZM9.375 26.0391H7.875V27.5391H9.375V26.0391ZM25.459 40.625V26.0391H22.459V40.625H25.459ZM24.959 39.125H23.959V42.125H24.959V39.125ZM23.459 26.0391V40.625H26.459V26.0391H23.459ZM40.625 24.5391H24.959V27.5391H40.625V24.5391ZM39.125 25.0391V26.0391H42.125V25.0391H39.125ZM24.959 26.5391H40.625V23.5391H24.959V26.5391ZM23.459 9.375L23.459 25.0391L26.459 25.0391L26.459 9.375L23.459 9.375ZM23.959 10.875H24.959V7.875H23.959V10.875ZM25.459 25.0391L25.459 9.375L22.459 9.375L22.459 25.0391L25.459 25.0391ZM9.375 26.5391H23.959V23.5391H9.375V26.5391ZM10.875 26.0391V25.0391H7.875V26.0391H10.875ZM23.959 24.5391H9.375V27.5391H23.959V24.5391Z" fill="#231F23"/>
</svg>
