<svg width="134" height="134" viewBox="0 0 134 134" fill="none" xmlns="http://www.w3.org/2000/svg">
<path d="M26.8813 68.303C44.4201 67.404 56.9705 83.3211 62.6463 98.3216L55.86 98.4274C59.9318 84.9604 64.7968 71.9694 71.072 59.3837C77.0299 48.2964 86.1959 30.5813 100.58 30.1406C102.589 30.2111 102.624 33.243 100.58 33.3135C94.1281 33.6131 89.2101 38.9894 85.5085 43.9601C77.6821 54.9241 72.729 67.8975 68.3927 80.6418C66.2599 87.0933 64.3033 93.7034 62.6992 100.225C62.2057 102.217 60.1433 103.433 58.1867 102.764C57.0233 102.376 56.1949 101.424 55.9129 100.331C55.0491 96.982 53.639 93.3156 52.0173 90.0193C47.258 80.0954 38.5327 71.0351 26.9342 70.5945C25.524 70.5416 25.4887 68.3735 26.9342 68.3206L26.8813 68.303Z" fill="#231F23"/>
<path d="M67 130.475C102.056 130.475 130.475 102.056 130.475 67C130.475 31.9439 102.056 3.52539 67 3.52539C31.9439 3.52539 3.52539 31.9439 3.52539 67C3.52539 102.056 31.9439 130.475 67 130.475Z" stroke="#231F23" stroke-width="4" stroke-linecap="round" stroke-linejoin="round"/>
</svg>
