<svg width="132" height="68" viewBox="0 0 132 68" fill="none" xmlns="http://www.w3.org/2000/svg">
<path id="Vector" d="M127.399 38.9194C114.897 39.1275 99.8493 42.6654 92.7652 53.9727C90.427 57.6724 89.2926 62.089 88.9916 66.6443C88.8759 68.471 86.0746 68.4479 86.0052 66.598C85.056 54.4352 91.3067 45.1396 100.336 38.9194H4.63016C2.06042 38.9194 0 36.8383 0 34.2948C0 31.7512 2.06042 29.6701 4.63016 29.6701H99.9419C90.8668 23.5193 84.6161 14.2931 85.4264 1.96838C85.519 -0.644553 89.4778 -0.667676 89.5704 1.96838C89.8945 21.4613 110.313 29.4851 127.075 29.6701H127.399C133.511 29.7857 133.557 38.7807 127.399 38.9194Z" fill="#231F23"/>
</svg>
