<svg width="38" height="39" viewBox="0 0 38 39" fill="none" xmlns="http://www.w3.org/2000/svg">
<path id="Vector" d="M34.5693 37.7508C35.3571 38.5251 36.6234 38.5142 37.3977 37.7264C38.1719 36.9387 38.161 35.6724 37.3733 34.8981L34.5693 37.7508ZM23.9233 21.678C23.1355 20.9037 21.8693 20.9146 21.095 21.7024C20.3207 22.4902 20.3316 23.7564 21.1194 24.5307L23.9233 21.678ZM24.1428 14.6921C24.1428 20.2167 19.6421 24.7103 14.0714 24.7103V28.7103C21.8345 28.7103 28.1428 22.4425 28.1428 14.6921H24.1428ZM14.0714 24.7103C8.5008 24.7103 4 20.2167 4 14.6921H0C0 22.4425 6.30832 28.7103 14.0714 28.7103V24.7103ZM4 14.6921C4 9.16747 8.5008 4.67383 14.0714 4.67383V0.673828C6.30832 0.673828 0 6.94169 0 14.6921H4ZM14.0714 4.67383C19.6421 4.67383 24.1428 9.16747 24.1428 14.6921H28.1428C28.1428 6.94169 21.8345 0.673828 14.0714 0.673828V4.67383ZM37.3733 34.8981L23.9233 21.678L21.1194 24.5307L34.5693 37.7508L37.3733 34.8981Z" fill="#231F23"/>
</svg>
